<svg width="82" height="66" viewBox="0 0 82 66" fill="none" xmlns="http://www.w3.org/2000/svg">
<g clip-path="url(#clip0_2506_275)">
<path fill-rule="evenodd" clip-rule="evenodd" d="M3.6092 60.8444H3.3748C3.3748 60.7503 3.31609 60.6085 3.31609 60.5609C3.31609 60.514 3.31609 60.4198 3.13997 60.4198H2.78773V60.8444H2.61161V59.8528H3.13997C3.3748 59.8528 3.55049 59.9004 3.55049 60.0887C3.55049 60.2305 3.49178 60.2781 3.4335 60.3247C3.49221 60.3723 3.55049 60.4195 3.55049 60.514V60.7027C3.55049 60.7503 3.55049 60.7503 3.6092 60.7503V60.8444ZM3.3748 60.1363C3.3748 59.9946 3.25738 59.9946 3.19868 59.9946H2.78773V60.2781H3.13997C3.25738 60.2781 3.3748 60.2305 3.3748 60.1363V60.1363ZM4.37238 60.325C4.37238 59.7587 3.78574 59.2858 3.02256 59.2858C2.31851 59.2858 1.73145 59.7587 1.73145 60.325C1.73145 60.9389 2.31851 61.4118 3.02256 61.4118C3.78532 61.4114 4.37238 60.9389 4.37238 60.325ZM4.19626 60.325C4.19626 60.8448 3.66833 61.2224 3.02256 61.2224C2.37679 61.2224 1.90756 60.8444 1.90756 60.325C1.90756 59.8528 2.37722 59.4276 3.02256 59.4276C3.6679 59.4276 4.19626 59.8528 4.19626 60.325ZM76.4961 41.2426C76.4961 42.6598 75.3811 43.3203 73.3855 43.3203H69.5717V41.9031H73.3855C73.7377 41.9031 74.0313 41.8562 74.1491 41.762C74.2661 41.6672 74.3835 41.5254 74.3835 41.3368C74.3835 41.1474 74.2665 40.9588 74.1491 40.8646C74.0313 40.7698 73.7969 40.7228 73.4446 40.7228C71.626 40.6753 69.3369 40.7698 69.3369 38.6917C69.3369 37.7467 70.0997 36.7075 72.1535 36.7075H76.0852V38.1247H72.4466C72.0952 38.1247 71.86 38.1247 71.6839 38.2189C71.5078 38.3606 71.3908 38.5024 71.3908 38.7386C71.3908 38.9749 71.5669 39.1166 71.8013 39.2115C72.0365 39.2584 72.2714 39.3056 72.5649 39.3056H73.6208C74.7358 39.3056 75.4402 39.4943 75.9099 39.8254C76.2613 40.1558 76.4961 40.5814 76.4961 41.2426V41.2426ZM68.2215 39.8254C67.7518 39.4943 67.0473 39.3056 65.9324 39.3056H64.8765C64.5834 39.3056 64.3481 39.258 64.1137 39.2115C63.8785 39.1166 63.7032 38.9749 63.7032 38.7386C63.7032 38.5024 63.7615 38.3606 63.9963 38.2189C64.1724 38.1247 64.4068 38.1247 64.7591 38.1247H68.3976V36.7075H64.466C62.353 36.7075 61.6485 37.7467 61.6485 38.6917C61.6485 40.7694 63.9376 40.6753 65.7571 40.7228C66.1085 40.7228 66.3437 40.7698 66.4607 40.8646C66.5777 40.9588 66.696 41.1474 66.696 41.3368C66.696 41.5254 66.5781 41.6672 66.4607 41.762C66.2846 41.8562 66.0502 41.9031 65.698 41.9031H61.8833V43.3203H65.698C67.6927 43.3203 68.8081 42.6595 68.8081 41.2426C68.8081 40.5814 68.5737 40.1558 68.2215 39.8254V39.8254ZM60.7096 41.951H56.0744V40.6283H60.5926V39.3063H56.0744V38.0778H60.7096V36.7082H54.1375V43.3206H60.7096V41.951ZM52.0245 37.0389C51.3787 36.7554 50.616 36.7078 49.6184 36.7078H45.1001V43.3203H47.0949V40.9115H49.2079C49.9115 40.9115 50.3229 40.9591 50.6164 41.195C50.9686 41.5254 50.9686 42.0925 50.9686 42.5177V43.3203H52.9047V42.0449C52.9047 41.4309 52.8464 41.1474 52.6115 40.817C52.4354 40.6277 52.084 40.3917 51.6144 40.25C52.1419 40.1089 53.0229 39.5419 53.0229 38.5024C53.0225 37.747 52.6703 37.3218 52.0245 37.0389V37.0389ZM40.8745 36.7078H34.5951L32.0716 38.8807L29.6655 36.7078H21.7431V43.3203H29.5485L32.072 41.1474L34.4781 43.3203H38.2927V41.1009H40.7575C42.4592 41.1009 44.1617 40.7228 44.1617 38.8807C44.1612 37.0859 42.4005 36.7078 40.8745 36.7078ZM50.4398 39.4477C50.1467 39.5419 49.8532 39.5419 49.501 39.5419L47.0949 39.5895V38.0774H49.501C49.8532 38.0774 50.2054 38.0774 50.4398 38.2192C50.6751 38.314 50.8504 38.5027 50.8504 38.7862C50.8504 39.0697 50.6751 39.306 50.4398 39.4477V39.4477ZM40.8745 39.7782H38.2923V38.0774H40.8745C41.579 38.0774 42.0482 38.314 42.0482 38.8807C42.0482 39.4477 41.5786 39.7782 40.8745 39.7782ZM33.304 40.0141L36.3554 37.4166V42.754L33.304 40.0141ZM28.5505 41.951H23.6795V40.6283H28.0221V39.3063H23.6795V38.0778H28.6092L30.7805 40.0144L28.5505 41.951V41.951ZM71.0381 31.9372H68.2215L64.5243 26.9775V31.9372H60.5344L59.7707 30.4727H55.663L54.9002 31.9372H52.6111C51.6722 31.9372 50.4398 31.7482 49.7362 31.1811C49.0904 30.6145 48.7382 29.8588 48.7382 28.6778C48.7382 27.6859 48.9143 26.7885 49.7941 26.08C50.3807 25.5603 51.4374 25.3244 52.7868 25.3244H54.6646V26.7416H52.7868C52.0832 26.7416 51.6718 26.8361 51.2613 27.1196C50.9091 27.4031 50.7329 27.9225 50.7329 28.6309C50.7329 29.3394 50.9091 29.8591 51.2613 30.1899C51.5544 30.4258 52.0832 30.5203 52.6107 30.5203H53.4913L56.3079 25.3247H59.2424L62.5287 31.5595V25.3244H65.5805L69.0429 29.906V25.3244H71.0377V31.9372H71.0381V31.9372ZM47.7406 25.3244H45.7459V31.9372H47.7406V25.3244V25.3244ZM43.5738 25.6079C42.928 25.3244 42.2244 25.3244 41.2268 25.3244H36.7077V31.9372H38.6441V29.528H40.7567C41.4612 29.528 41.9308 29.5753 42.2239 29.8115C42.5762 30.1423 42.517 30.7093 42.517 31.087V31.9372H44.5118V30.6145C44.5118 30.0478 44.4535 29.7643 44.1604 29.4335C43.9843 29.2445 43.632 29.0083 43.2215 28.8668C43.749 28.6778 44.63 28.1584 44.63 27.1192C44.6305 26.3635 44.2191 25.9383 43.5738 25.6079ZM35.2991 30.5676H30.7217V29.2449H35.2404V27.8752H30.7217V26.6943H35.2991V25.3247H28.7266V31.9375H35.2991V30.5676ZM27.2593 25.3244H24.0318L21.6257 29.8115L19.0434 25.3244H15.8746V31.5591L12.5296 25.3244H9.59554L6.07444 31.9372H8.18702L8.94977 30.4727H13.0575L13.8203 31.9372H17.811V26.7416L20.6864 31.9372H22.388L25.2638 26.7416V31.9372H27.2589V25.3244H27.2593ZM59.0671 29.0558L57.7169 26.458L56.3675 29.0558H59.0671ZM42.0482 28.017C41.7551 28.1588 41.4616 28.1588 41.0507 28.1588H38.6441V26.6946H41.0502C41.4025 26.6946 41.8126 26.6946 42.0478 26.7891C42.2822 26.9309 42.4001 27.1199 42.4001 27.4031C42.4001 27.6862 42.2826 27.9222 42.0482 28.017V28.017ZM9.65382 29.0558L11.0036 26.458L12.3535 29.0558H9.65382V29.0558ZM76.0269 4.5885H6.01531V28.3947L8.42142 24.002H13.5267L14.2312 25.0884V24.002H20.2171L21.567 26.3635L22.8581 24.002H41.9308C42.8106 24.002 43.5733 24.1437 44.1608 24.5214V24.002H49.3836V24.5214C50.2633 24.1434 51.3783 24.002 52.6698 24.002H60.24L60.9444 25.0884V24.002H66.5194L67.3413 25.0884V24.002H72.7984V33.2599H67.2826L66.2267 31.843V33.2599H59.3602L58.5975 31.7485H56.895L56.1322 33.2599H52.5528C51.1443 33.2599 50.0876 32.9763 49.384 32.6932V33.2599H40.8745V31.1342C40.8745 30.8507 40.8158 30.8035 40.581 30.8035H40.2879V33.2595H23.8557V32.0786L23.269 33.2595H19.8066L19.22 32.1258V33.2595H12.5883L11.8842 31.7482H10.1822L9.41942 33.2595H6.01531V61.1752H76.0269V44.2177C75.2641 44.5012 74.2074 44.643 73.1511 44.643H68.0454V44.076C67.4587 44.4543 66.402 44.643 65.4049 44.643H49.3248V42.5177C49.3248 42.2342 49.2666 42.2342 48.9726 42.2342H48.6795V44.643H43.3976V42.1397C42.5179 42.4701 41.5199 42.4701 40.6397 42.4701H40.0526V44.643H33.5975L32.072 43.2258L30.3704 44.643H19.9823V35.3855H30.5456L32.0716 36.802L33.7149 35.3855H40.8158C41.6369 35.3855 42.9871 35.4796 43.5738 35.9518V35.3855H49.9115C50.5573 35.3855 51.7901 35.4796 52.6111 35.9518V35.3855H62.1769V35.9522C62.7052 35.5741 63.7032 35.3858 64.583 35.3858H69.9231V35.9522C70.5106 35.6217 71.3316 35.3858 72.3884 35.3858H76.0269V4.5885V4.5885Z" fill="black"/>
</g>
<defs>
<clipPath id="clip0_2506_275">
<rect width="82" height="66" fill="white"/>
</clipPath>
</defs>
</svg>

