<svg width="82" height="39" viewBox="0 0 82 39" fill="none" xmlns="http://www.w3.org/2000/svg">
<g clip-path="url(#clip0_2503_222)">
<path d="M0.0102539 0H81.9898V39H0.0102539V0Z" fill="black" fill-opacity="0.15"/>
<path d="M16.9012 11.9468C17.6902 11.682 18.5318 11.5408 19.4049 11.5408C23.227 11.5408 26.418 14.2733 27.1473 17.9061L32.565 16.794C31.3236 10.6229 25.9025 5.97693 19.4049 5.97693C17.9146 5.97693 16.4874 6.22052 15.1479 6.67241L16.9012 11.9468Z" fill="white"/>
<path d="M10.509 29.6198L14.1733 25.4505C12.5393 23.9924 11.5083 21.8636 11.5083 19.4912C11.5083 17.1223 12.5393 14.9935 14.1733 13.539L10.509 9.36609C7.73179 11.8444 5.97852 15.463 5.97852 19.4912C5.97852 23.5229 7.73179 27.1415 10.509 29.6198" fill="white"/>
<path d="M27.1473 21.0869C26.4145 24.7161 23.227 27.4451 19.4084 27.4451C18.5318 27.4451 17.6867 27.3039 16.9012 27.0356L15.1479 32.317C16.4874 32.7654 17.9181 33.009 19.4084 33.009C25.899 33.009 31.3166 28.3701 32.565 22.206L27.1473 21.0869Z" fill="white"/>
<path d="M37.3022 25.6234C37.1233 25.3339 36.8849 24.8714 36.7376 24.529C35.8785 22.5237 35.8399 20.4479 36.5623 18.4567C37.3583 16.2714 38.8801 14.6016 40.8473 13.7472C43.3194 12.6775 46.051 12.8858 48.4214 14.3015C49.9257 15.17 50.9917 16.5115 51.8017 18.4108C51.9034 18.6544 51.9946 18.9122 52.0858 19.1346L37.3022 25.6234ZM42.2394 16.9704C40.4826 17.7295 39.5779 19.3888 39.7673 21.3305L47.2012 18.1072C45.9213 16.5962 44.2592 16.0949 42.2394 16.9704V16.9704ZM48.1269 23.9818C48.1234 23.9818 48.1234 23.9853 48.1234 23.9853L47.9691 23.8794C47.5237 24.6031 46.833 25.1927 45.9598 25.574C44.2977 26.3012 42.7584 26.1141 41.6503 25.1362L41.5486 25.2915C41.5486 25.2915 41.5486 25.288 41.5451 25.288L39.6586 28.1299C40.1284 28.4583 40.6299 28.7336 41.1559 28.9561C43.2388 29.8281 45.3707 29.7857 47.4712 28.8678C48.9895 28.2041 50.1817 27.1944 50.9952 25.9129L48.1269 23.9818ZM57.2509 9.56726V25.3621L59.6915 26.3577L58.3064 29.6127L55.6133 28.483C55.0102 28.2182 54.5965 27.8157 54.2879 27.3603C53.9898 26.8978 53.7689 26.2588 53.7689 25.4045V9.56726H57.2509ZM63.5697 21.341C63.5697 19.996 64.1623 18.7886 65.095 17.9695L62.5914 15.1594C60.8942 16.6704 59.8247 18.8768 59.8247 21.334C59.8212 23.7947 60.8907 26.0047 62.5844 27.5157L65.0845 24.7055C64.1553 23.8829 63.5697 22.6826 63.5697 21.341V21.341ZM68.016 25.8211C67.5251 25.8211 67.0482 25.7364 66.6064 25.5881L65.4106 29.1643C66.2277 29.4397 67.1008 29.5915 68.0125 29.5915C71.9749 29.5951 75.2816 26.7637 76.0495 23.0038L72.3746 22.2484C71.9573 24.2924 70.1655 25.8246 68.016 25.8211V25.8211ZM68.0265 13.0906C67.1183 13.0906 66.2452 13.2388 65.4282 13.5107L66.6134 17.0905C67.0587 16.9422 67.5321 16.861 68.023 16.861C70.176 16.8645 71.9714 18.4038 72.3781 20.4514L76.053 19.703C75.2991 15.936 71.9924 13.0941 68.0265 13.0906V13.0906Z" fill="white"/>
</g>
<defs>
<clipPath id="clip0_2503_222">
<rect width="82" height="39" fill="white"/>
</clipPath>
</defs>
</svg>

